<svg width="366" height="296" viewBox="0 0 366 296" fill="none" xmlns="http://www.w3.org/2000/svg">
<path d="M290.27 213.397C244.343 191.879 198.417 170.361 152.229 148.72C139.182 142.607 125.873 136.372 112.826 130.258C104.476 126.346 98.3626 139.393 106.713 143.306C152.639 164.824 198.566 186.342 244.754 207.983C257.801 214.096 271.109 220.331 284.156 226.445C292.507 230.357 298.62 217.31 290.27 213.397Z" fill="#9EAEC8"/>
<path d="M332.869 190.396C279.481 164.427 225.498 140.406 170.643 117.569C155.141 111.26 139.762 104.691 124.138 98.6436C115.543 95.2531 109.43 108.3 118.025 111.691C172.986 133.623 227.597 156.983 281.091 182.047C296.225 189.138 311.36 196.23 326.373 203.582C334.984 207.616 341.097 194.569 332.869 190.396Z" fill="#9EAEC8"/>
<path d="M118.586 199.468C99.5335 170.174 81.875 139.942 65.4884 109.034C61.5651 101.786 57.3809 94.4152 53.9631 86.7674C53.0087 84.7291 51.3773 81.419 52.6164 79.4537C52.2496 80.2365 52.2331 79.5923 52.8773 79.5759C53.5214 79.5595 54.0269 79.1598 54.6711 79.1434C56.8481 78.5722 59.0415 78.6454 61.0962 78.3352C79.3443 76.0652 97.7146 73.5341 116.224 71.3864C136.91 68.6675 157.596 65.9487 178.42 63.6131C187.544 62.4781 186.278 48.2007 177.154 49.3357C137.576 54.3409 97.9975 59.3464 58.6802 64.4739C49.5562 65.6089 40.0818 68.1708 38.4121 78.5266C36.9705 87.7163 42.9978 96.5866 47.0597 104.218C55.5997 120.63 64.4007 137.165 73.7072 153.3C84.4898 171.718 95.3947 189.875 106.944 208.015C111.772 215.369 123.553 207.205 118.586 199.468Z" fill="#9EAEC8"/>
</svg>
