<svg width="295" height="107" viewBox="0 0 295 107" fill="none" xmlns="http://www.w3.org/2000/svg">
<g filter="url(#filter0_d_21_58)">
<path d="M6.085 97V26.984L4.805 14.184L6.085 6.376H34.245V41.064H60.997V6.376H89.157V54.504L90.437 63.336V97H60.997V64.488H34.245V73.448L35.525 97H6.085ZM121.165 98.28C115.448 98.28 110.797 96.9573 107.213 94.312C103.714 91.5813 101.965 86.8453 101.965 80.104C101.965 73.8747 104.013 69.1813 108.109 66.024C112.29 62.7813 117.922 61.16 125.005 61.16C128.845 61.16 131.917 61.544 134.221 62.312C136.525 62.9947 138.274 63.6773 139.469 64.36L140.365 63.72C140.365 61.0747 139.896 59.112 138.957 57.832C138.018 56.4667 135.757 55.784 132.173 55.784C129.016 55.784 125.773 56.1253 122.445 56.808C119.202 57.4053 116.13 58.216 113.229 59.24C110.328 60.1787 107.853 61.2027 105.805 62.312V39.272C107.17 38.8453 109.346 38.3333 112.333 37.736C115.32 37.1387 118.904 36.6267 123.085 36.2C127.266 35.688 131.746 35.432 136.525 35.432C144.546 35.432 150.904 36.4133 155.597 38.376C160.29 40.2533 163.618 43.0267 165.581 46.696C167.629 50.28 168.653 54.5893 168.653 59.624V76.648L171.213 89.576L168.653 97.128H141.645V90.856L140.365 90.216C139 92.1787 136.653 94.0133 133.325 95.72C130.082 97.4267 126.029 98.28 121.165 98.28ZM135.629 81.512C136.909 81.512 137.976 81.2987 138.829 80.872C139.682 80.4453 140.194 80.1893 140.365 80.104V77.288C140.365 76.008 139.981 74.8987 139.213 73.96C138.445 73.0213 137.293 72.552 135.757 72.552C134.392 72.552 133.112 72.936 131.917 73.704C130.722 74.3867 130.125 75.624 130.125 77.416C130.125 80.1467 131.96 81.512 135.629 81.512ZM201.13 98.28C197.119 98.28 193.237 97.256 189.482 95.208C185.813 93.16 182.783 89.9173 180.394 85.48C178.005 81.0427 176.81 75.24 176.81 68.072C176.81 60.136 177.962 53.7787 180.266 49C182.655 44.2213 185.727 40.7653 189.482 38.632C193.237 36.4133 197.119 35.304 201.13 35.304C204.885 35.304 207.914 35.688 210.218 36.456C212.522 37.1387 214.186 37.7787 215.21 38.376L213.93 14.184L215.21 6.504H243.498V76.52L246.058 89.32L243.498 97.128H216.49V90.856L215.21 90.216C215.21 90.216 214.954 90.6427 214.442 91.496C214.015 92.264 213.247 93.2027 212.138 94.312C211.114 95.336 209.706 96.232 207.914 97C206.122 97.8533 203.861 98.28 201.13 98.28ZM213.93 77.16L215.21 75.88V63.592C215.21 61.6293 214.783 60.0933 213.93 58.984C213.077 57.7893 211.967 57.192 210.602 57.192C208.895 57.192 207.53 57.832 206.506 59.112C205.482 60.3067 204.97 62.44 204.97 65.512C204.97 69.352 205.866 72.2533 207.658 74.216C209.45 76.1787 211.541 77.16 213.93 77.16ZM271.989 32.872L253.045 16.488L271.989 0.231995L290.933 16.488L271.989 32.872ZM257.781 97V54.632L255.093 44.392L257.653 36.584H285.941V97H257.781Z" fill="white"/>
</g>
<defs>
<filter id="filter0_d_21_58" x="0.804993" y="0.231995" width="294.128" height="106.048" filterUnits="userSpaceOnUse" color-interpolation-filters="sRGB">
<feFlood flood-opacity="0" result="BackgroundImageFix"/>
<feColorMatrix in="SourceAlpha" type="matrix" values="0 0 0 0 0 0 0 0 0 0 0 0 0 0 0 0 0 0 127 0" result="hardAlpha"/>
<feOffset dy="4"/>
<feGaussianBlur stdDeviation="2"/>
<feComposite in2="hardAlpha" operator="out"/>
<feColorMatrix type="matrix" values="0 0 0 0 0 0 0 0 0 0 0 0 0 0 0 0 0 0 1 0"/>
<feBlend mode="normal" in2="BackgroundImageFix" result="effect1_dropShadow_21_58"/>
<feBlend mode="normal" in="SourceGraphic" in2="effect1_dropShadow_21_58" result="shape"/>
</filter>
</defs>
</svg>
